<svg xmlns="http://www.w3.org/2000/svg" width="1200" height="760" viewBox="0 0 1200 760" role="img" aria-label="Drift Reference Performance">
<rect x="0" y="0" width="1200" height="760" fill="#0b1220"/>
<text x="100" y="52" font-size="28" fill="#e2e8f0" font-weight="700">Drift Reference Performance</text>
<text x="100" y="80" font-size="16" fill="#93c5fd">Best and median net SOL by drift anchor.</text>
<rect x="100" y="110" width="1060" height="510" fill="#111827" stroke="#334155"/>
<line x1="100" y1="620.00" x2="1160" y2="620.00" stroke="#1f2937"/>
<text x="90" y="624.00" text-anchor="end" font-size="12" fill="#94a3b8">0.0</text>
<line x1="100" y1="518.00" x2="1160" y2="518.00" stroke="#1f2937"/>
<text x="90" y="522.00" text-anchor="end" font-size="12" fill="#94a3b8">4.3</text>
<line x1="100" y1="416.00" x2="1160" y2="416.00" stroke="#1f2937"/>
<text x="90" y="420.00" text-anchor="end" font-size="12" fill="#94a3b8">8.5</text>
<line x1="100" y1="314.00" x2="1160" y2="314.00" stroke="#1f2937"/>
<text x="90" y="318.00" text-anchor="end" font-size="12" fill="#94a3b8">12.8</text>
<line x1="100" y1="212.00" x2="1160" y2="212.00" stroke="#1f2937"/>
<text x="90" y="216.00" text-anchor="end" font-size="12" fill="#94a3b8">17.1</text>
<line x1="100" y1="110.00" x2="1160" y2="110.00" stroke="#1f2937"/>
<text x="90" y="114.00" text-anchor="end" font-size="12" fill="#94a3b8">21.4</text>
<line x1="100" y1="620" x2="1160" y2="620" stroke="#64748b"/>
<line x1="100" y1="110" x2="100" y2="620" stroke="#64748b"/>
<text x="24" y="128" font-size="14" fill="#94a3b8" transform="rotate(-90 24 128)">Net SOL</text>
<rect x="222.67" y="239.62" width="52.00" height="380.38" fill="#f97316"/>
<rect x="278.67" y="541.12" width="52.00" height="78.88" fill="#22d3ee"/>
<text x="276.67" y="646" text-anchor="middle" font-size="12" fill="#cbd5e1">P50</text>
<rect x="576.00" y="236.95" width="52.00" height="383.05" fill="#f97316"/>
<rect x="632.00" y="539.46" width="52.00" height="80.54" fill="#22d3ee"/>
<text x="630.00" y="646" text-anchor="middle" font-size="12" fill="#cbd5e1">P75</text>
<rect x="929.33" y="164.64" width="52.00" height="455.36" fill="#f97316"/>
<rect x="985.33" y="521.61" width="52.00" height="98.39" fill="#22d3ee"/>
<text x="983.33" y="646" text-anchor="middle" font-size="12" fill="#cbd5e1">P90</text>
<rect x="100" y="691" width="18" height="18" fill="#f97316"/>
<text x="124" y="705" font-size="14" fill="#cbd5e1">Best Net SOL</text>
<rect x="320" y="691" width="18" height="18" fill="#22d3ee"/>
<text x="344" y="705" font-size="14" fill="#cbd5e1">Median Net SOL</text>
</svg>
