<svg xmlns="http://www.w3.org/2000/svg" width="1200" height="760" viewBox="0 0 1200 760" role="img" aria-label="Top-50 Concentration: Entry Cutoff Tick">
<rect x="0" y="0" width="1200" height="760" fill="#0b1220"/>
<text x="100" y="52" font-size="28" fill="#e2e8f0" font-weight="700">Top-50 Concentration: Entry Cutoff Tick</text>
<text x="100" y="80" font-size="16" fill="#93c5fd">Late cutoff windows dominate the highest-return cluster.</text>
<rect x="100" y="110" width="1060" height="510" fill="#111827" stroke="#334155"/>
<line x1="100" y1="620.00" x2="1160" y2="620.00" stroke="#1f2937"/>
<text x="90" y="624.00" text-anchor="end" font-size="12" fill="#94a3b8">0.0</text>
<line x1="100" y1="518.00" x2="1160" y2="518.00" stroke="#1f2937"/>
<text x="90" y="522.00" text-anchor="end" font-size="12" fill="#94a3b8">4.0</text>
<line x1="100" y1="416.00" x2="1160" y2="416.00" stroke="#1f2937"/>
<text x="90" y="420.00" text-anchor="end" font-size="12" fill="#94a3b8">8.1</text>
<line x1="100" y1="314.00" x2="1160" y2="314.00" stroke="#1f2937"/>
<text x="90" y="318.00" text-anchor="end" font-size="12" fill="#94a3b8">12.1</text>
<line x1="100" y1="212.00" x2="1160" y2="212.00" stroke="#1f2937"/>
<text x="90" y="216.00" text-anchor="end" font-size="12" fill="#94a3b8">16.1</text>
<line x1="100" y1="110.00" x2="1160" y2="110.00" stroke="#1f2937"/>
<text x="90" y="114.00" text-anchor="end" font-size="12" fill="#94a3b8">20.2</text>
<line x1="100" y1="620" x2="1160" y2="620" stroke="#64748b"/>
<line x1="100" y1="110" x2="100" y2="620" stroke="#64748b"/>
<text x="24" y="128" font-size="14" fill="#94a3b8" transform="rotate(-90 24 128)">Top-50 count</text>
<rect x="180.00" y="594.70" width="52.00" height="25.30" fill="#34d399"/>
<text x="206.00" y="646" text-anchor="middle" font-size="12" fill="#cbd5e1">40</text>
<rect x="392.00" y="518.81" width="52.00" height="101.19" fill="#34d399"/>
<text x="418.00" y="646" text-anchor="middle" font-size="12" fill="#cbd5e1">45</text>
<rect x="604.00" y="341.73" width="52.00" height="278.27" fill="#34d399"/>
<text x="630.00" y="646" text-anchor="middle" font-size="12" fill="#cbd5e1">50</text>
<rect x="816.00" y="215.24" width="52.00" height="404.76" fill="#34d399"/>
<text x="842.00" y="646" text-anchor="middle" font-size="12" fill="#cbd5e1">55</text>
<rect x="1028.00" y="164.64" width="52.00" height="455.36" fill="#34d399"/>
<text x="1054.00" y="646" text-anchor="middle" font-size="12" fill="#cbd5e1">60</text>
<rect x="100" y="691" width="18" height="18" fill="#34d399"/>
<text x="124" y="705" font-size="14" fill="#cbd5e1">Count</text>
</svg>
