<svg xmlns="http://www.w3.org/2000/svg" width="1200" height="760" viewBox="0 0 1200 760" role="img" aria-label="Playbook Mode Performance">
<rect x="0" y="0" width="1200" height="760" fill="#0b1220"/>
<text x="100" y="52" font-size="28" fill="#e2e8f0" font-weight="700">Playbook Mode Performance</text>
<text x="100" y="80" font-size="16" fill="#93c5fd">Best and median net SOL by mode over full grid.</text>
<rect x="100" y="110" width="1060" height="510" fill="#111827" stroke="#334155"/>
<line x1="100" y1="620.00" x2="1160" y2="620.00" stroke="#1f2937"/>
<text x="90" y="624.00" text-anchor="end" font-size="12" fill="#94a3b8">0.0</text>
<line x1="100" y1="518.00" x2="1160" y2="518.00" stroke="#1f2937"/>
<text x="90" y="522.00" text-anchor="end" font-size="12" fill="#94a3b8">4.3</text>
<line x1="100" y1="416.00" x2="1160" y2="416.00" stroke="#1f2937"/>
<text x="90" y="420.00" text-anchor="end" font-size="12" fill="#94a3b8">8.5</text>
<line x1="100" y1="314.00" x2="1160" y2="314.00" stroke="#1f2937"/>
<text x="90" y="318.00" text-anchor="end" font-size="12" fill="#94a3b8">12.8</text>
<line x1="100" y1="212.00" x2="1160" y2="212.00" stroke="#1f2937"/>
<text x="90" y="216.00" text-anchor="end" font-size="12" fill="#94a3b8">17.1</text>
<line x1="100" y1="110.00" x2="1160" y2="110.00" stroke="#1f2937"/>
<text x="90" y="114.00" text-anchor="end" font-size="12" fill="#94a3b8">21.4</text>
<line x1="100" y1="620" x2="1160" y2="620" stroke="#64748b"/>
<line x1="100" y1="110" x2="100" y2="620" stroke="#64748b"/>
<text x="24" y="128" font-size="14" fill="#94a3b8" transform="rotate(-90 24 128)">Net SOL</text>
<rect x="152.00" y="208.81" width="52.00" height="411.19" fill="#f59e0b"/>
<rect x="208.00" y="466.79" width="52.00" height="153.21" fill="#60a5fa"/>
<text x="206.00" y="646" text-anchor="middle" font-size="12" fill="#cbd5e1">AUTO_REGIME</text>
<rect x="364.00" y="164.64" width="52.00" height="455.36" fill="#f59e0b"/>
<rect x="420.00" y="460.18" width="52.00" height="159.82" fill="#60a5fa"/>
<text x="418.00" y="646" text-anchor="middle" font-size="12" fill="#cbd5e1">P1_MOMENTUM</text>
<rect x="576.00" y="418.15" width="52.00" height="201.85" fill="#f59e0b"/>
<rect x="632.00" y="562.58" width="52.00" height="57.42" fill="#60a5fa"/>
<text x="630.00" y="646" text-anchor="middle" font-size="12" fill="#cbd5e1">P2_PULLBACK_CONT</text>
<rect x="788.00" y="419.96" width="52.00" height="200.04" fill="#f59e0b"/>
<rect x="844.00" y="574.98" width="52.00" height="45.02" fill="#60a5fa"/>
<text x="842.00" y="646" text-anchor="middle" font-size="12" fill="#cbd5e1">P3_MEAN_REVERT</text>
<rect x="1000.00" y="328.11" width="52.00" height="291.89" fill="#f59e0b"/>
<rect x="1056.00" y="510.32" width="52.00" height="109.68" fill="#60a5fa"/>
<text x="1054.00" y="646" text-anchor="middle" font-size="12" fill="#cbd5e1">P4_BREAKOUT</text>
<rect x="100" y="691" width="18" height="18" fill="#f59e0b"/>
<text x="124" y="705" font-size="14" fill="#cbd5e1">Best Net SOL</text>
<rect x="320" y="691" width="18" height="18" fill="#60a5fa"/>
<text x="344" y="705" font-size="14" fill="#cbd5e1">Median Net SOL</text>
</svg>
